<svg xmlns="http://www.w3.org/2000/svg" width="1280" height="760" viewBox="0 0 1280 760" role="img" aria-labelledby="title desc">
  <title id="title">Open BookRelax</title>
  <desc id="desc">BookRelax work page with NoteFlow panel open.</desc>
  <rect width="1280" height="760" fill="#ffffff"/>
  <rect x="72" y="80" width="1136" height="600" rx="18" fill="#ffffff" stroke="#d7dee9"/>
  <rect x="72" y="80" width="1136" height="72" rx="18" fill="#f1f5f9"/>
  <rect x="132" y="102" width="760" height="30" rx="15" fill="#ffffff" stroke="#cbd5e1"/>
  <text x="156" y="124" font-family="Arial, sans-serif" font-size="16" fill="#64748b">clinicname.mybookrelax.com/practitioner/#/tabs/tab1</text>
  <rect x="98" y="198" width="710" height="42" rx="4" fill="#47d7e6"/>
  <text x="405" y="226" font-family="Arial, sans-serif" font-size="18" font-weight="700" fill="#fff">Work List</text>
  <g fill="#fff" stroke="#d4dce7">
    <rect x="98" y="260" width="710" height="82" rx="7"/>
    <rect x="98" y="356" width="710" height="82" rx="7"/>
    <rect x="98" y="452" width="710" height="82" rx="7"/>
  </g>
  <text x="126" y="296" font-family="Arial, sans-serif" font-size="19" font-weight="700" fill="#475569">Client appointment</text>
  <text x="126" y="392" font-family="Arial, sans-serif" font-size="19" font-weight="700" fill="#475569">Treatment notes ready</text>
  <text x="126" y="488" font-family="Arial, sans-serif" font-size="19" font-weight="700" fill="#475569">Open from Work page</text>
  <rect x="802" y="138" width="326" height="468" rx="16" fill="#0b1118" stroke="#233041"/>
  <rect x="802" y="138" width="326" height="70" rx="16" fill="#060a10"/>
  <text x="830" y="183" font-family="Arial, sans-serif" font-size="25" font-weight="800" fill="#58a6ff">NoteFlow</text>
  <rect x="830" y="238" width="270" height="52" rx="10" fill="#16202c" stroke="#28384c"/>
  <text x="852" y="272" font-family="Arial, sans-serif" font-size="17" fill="#b6c5d8">Ready on BookRelax Work page</text>
  <rect x="830" y="322" width="270" height="68" rx="10" fill="#177a35"/>
  <text x="884" y="365" font-family="Arial, sans-serif" font-size="22" font-weight="800" fill="#fff">Start Auto-Fill</text>
  <rect x="830" y="420" width="270" height="118" rx="10" fill="#03070d" stroke="#243244"/>
  <text x="852" y="456" font-family="Consolas, monospace" font-size="18" fill="#6ee787">NoteFlow v8.0.0 ready</text>
  <text x="852" y="490" font-family="Consolas, monospace" font-size="18" fill="#9db7d6">Waiting for selected clients</text>
  <text x="126" y="622" font-family="Arial, sans-serif" font-size="38" font-weight="800" fill="#0b73d9">Use NoteFlow from the Work page</text>
</svg>
